<?xml version="1.0" encoding="UTF-8"?>
<svg id="Calque_2" data-name="Calque 2" xmlns="http://www.w3.org/2000/svg" viewBox="0 0 1120 1120">
  <defs>
    <style>
      .cls-1 {
        font-size: 109.94px;
      }

      .cls-1, .cls-2, .cls-3 {
        font-family: Poppins-Light, Poppins;
        font-weight: 300;
      }

      .cls-2 {
        font-size: 113.32px;
      }

      .cls-3 {
        font-size: 47.13px;
      }
    </style>
  </defs>
  <g>
    <path d="m534.57,506.32c.13.17.26.34.39.51.29.41.5.84.61,1.33.12.51.1,1.02-.1,1.51-.1.24-.23.46-.44.62-.09.07-.18.11-.29.12-.13.01-.27-.05-.33-.16-.01-.02-.03-.03-.03-.05-.09-.4-.37-.67-.67-.92-1.04-.87-2.16-1.61-3.41-2.14-.29-.13-.6-.22-.9-.32-.06-.02-.13-.01-.19,0-.03,0-.07.06-.07.09.03.17.06.34.11.5.98,3.53,1.93,7.06,2.85,10.6.64,2.47,1.26,4.93,1.82,7.42.29,1.3.52,2.6.72,3.91.19,1.27.33,2.55.45,3.83.08.85.13,1.71.17,2.56.05.98.08,1.97.1,2.95.03,1.35-.02,2.7-.12,4.04-.02.36-.08.72-.12,1.09-.14,1.28-.25,2.56-.41,3.83-.2,1.63-.63,3.19-1.31,4.68-.31.68-.65,1.35-.98,2.02h-.26c-.04-.32-.03-.64.01-.96.1-.79.2-1.57.31-2.35.15-1.02.3-2.03.46-3.05.1-.66.19-1.31.29-1.97.11-.72.18-1.44.25-2.17.12-1.45.17-2.91.2-4.36.02-.94,0-1.88-.05-2.82-.02-.32-.03-.64-.04-.96-.04-.98-.12-1.97-.23-2.94-.09-.79-.18-1.57-.28-2.36-.18-1.44-.44-2.88-.73-4.3-.58-2.9-1.36-5.74-2.17-8.58-.45-1.58-.91-3.17-1.29-4.77-.23-.96-.43-1.92-.54-2.9-.11-1-.17-2.01,0-3.01.02-.12-.05-.22-.16-.24-.66-.08-1.31-.21-1.98-.09-.14.03-.3.01-.45.02-.05,0-.09-.03-.08-.07,0-.04.01-.1.04-.11.11-.07.22-.13.34-.18.52-.21,1.07-.29,1.62-.38.08-.01.17-.03.28-.05-.05-.07-.07-.13-.12-.15-.07-.04-.16-.06-.24-.07-.23-.04-.47-.07-.7-.11-.06-.01-.11-.05-.18-.08.16-.14.35-.18.54-.19.62-.06,1.24-.04,1.86.06.06.01.13.02.19.03.06-.07,0-.11-.03-.15-.08-.07-.17-.13-.25-.2-.01,0-.02-.05,0-.06.02-.03.06-.06.09-.06.13.02.25.04.37.08,1.32.4,2.55.99,3.71,1.72.11.07.21.14.32.21.1.06.2.04.3-.01-.03.02-.05.03-.08.05.03-.02.05-.03.08-.05-.24-.28-.38-.61-.5-.95-.04-.12-.09-.24-.13-.35-.53-.15-1.07-.14-1.58-.33-.03-.01-.06-.05-.1-.08.05-.04.1-.09.16-.1.5-.07,1-.19,1.52-.17.4.02.81,0,1.21,0,.03,0,.06-.05.08-.08,0,0-.02-.03-.03-.04-.06-.03-.12-.04-.17-.07-.05-.03-.09-.08-.15-.14.16-.07.3,0,.43.02.15.01.3.03.44.04.15.02.3.03.44.05.15.02.29.06.44.03-.02-.07-.04-.13-.05-.18.06-.07.14-.09.23-.09.42.03.85.04,1.27.13.25.06.5.11.75.15.12.02.25.02.38.03.02.02.05.05.07.07,0,0,.04-.02.04-.02-.02-.07-.07-.06-.12-.03,0-.04,0-.09-.01-.11-.06-.06-.13-.11-.19-.17-.01-.01-.01-.04,0-.06,0-.02.02-.04.03-.04.17-.05.34-.01.5.04.33.1.63.25.94.41.11.06.21.16.37.12,0-.06-.02-.11-.02-.17,0-.07.05-.12.1-.11.25.08.45.24.64.41.2.19.4.38.6.58.14.13.3.16.47.11.18-.05.37-.12.55-.17.54-.16,1.08-.24,1.65-.22.21,0,.43,0,.64,0,0-.04,0-.09-.01-.11-.03-.03-.07-.04-.11-.06-1.34-.5-2.69-.98-4.09-1.31-.77-.18-1.55-.33-2.33-.44-.08-.01-.16-.03-.27-.06.06-.07.09-.13.14-.15.1-.03.21-.04.32-.04.58-.01,1.15,0,1.73.05.38.04.77.05,1.15.07.03,0,.06-.04.09-.05-.03-.02-.06-.06-.09-.07-.72-.2-1.45-.37-2.19-.49-1.63-.26-3.27-.39-4.92-.39-.43,0-.85.04-1.28.05-.06,0-.11-.04-.17-.07,0,0,0-.04,0-.06,0-.01.02-.03.04-.04.84-.14,1.69-.26,2.55-.29.79-.02,1.58-.09,2.37-.14.04,0,.08-.02.12-.04-.03-.02-.05-.06-.08-.07-.32-.04-.64-.08-.96-.11-.81-.06-1.62-.1-2.43-.16-.83-.06-1.67-.06-2.5-.03-.62.02-1.24.03-1.86.03-.45,0-.9.04-1.32.22-.23.09-.46.07-.69,0-.03-.01-.07-.06-.08-.09,0-.04,0-.08.02-.12,0-.02.02-.04.04-.05.38-.23.63-.57.88-.92.56-.8,1.27-1.44,2.09-1.97.72-.46,1.49-.84,2.28-1.16.47-.19.96-.36,1.44-.54.14-.05.29-.08.4-.19-.1-.07-.21-.04-.31-.01-.57.17-1.15.33-1.72.52-.65.22-1.29.45-1.9.78-.23.12-.46.24-.73.21-.03,0-.06-.05-.08-.08,0-.01,0-.05,0-.06.04-.05.08-.1.13-.14.25-.17.49-.35.75-.48.55-.29,1.11-.56,1.67-.82,1.45-.65,2.93-1.19,4.47-1.57.35-.09.71-.15,1.07-.22.23-.04.46-.09.72-.14-.05-.05-.08-.08-.1-.09-.27-.05-.55-.11-.82-.15-.95-.13-1.88-.05-2.8.19-.23.06-.45.13-.68.18-.1.02-.21,0-.32,0-.05,0-.11-.1-.09-.15.04-.08.07-.16.12-.23.21-.27.46-.51.76-.69.89-.55,1.78-1.11,2.69-1.62,1.23-.7,2.54-1.23,3.92-1.55.11-.03.2-.07.23-.19.17.06.33.04.5.04.06,0,.08-.02.06-.06-.19-.05-.37,0-.55.03-1.06.13-2.1.38-3.14.63-.29.07-.58.13-.88.19-.03,0-.09-.03-.09-.05,0-.04.02-.09.05-.11.1-.07.21-.15.33-.2.41-.19.81-.38,1.23-.54,1.64-.64,3.33-1.09,5.06-1.37,1.25-.2,2.51-.23,3.77-.1.08,0,.17,0,.26,0-.02-.05-.02-.11-.05-.12-1.11-.56-2.27-.86-3.53-.71-.34.04-.67.12-1,.22-.16.05-.33.08-.5.11-.03,0-.08-.03-.1-.06s-.02-.09,0-.12c.09-.18.25-.29.4-.41.73-.55,1.55-.92,2.46-1,.47-.04.86-.22,1.23-.49.22-.17.45-.32.67-.49.04-.03.04-.1.07-.17-.56.04-1.09.14-1.61.25-1.89.38-3.75.86-5.57,1.49-.51.17-1,.38-1.48.6-.37.16-.74.33-1.13.43-.03,0-.08-.02-.12-.03.02-.04.02-.08.05-.11.1-.08.2-.16.31-.23.33-.2.66-.4,1-.58.98-.53,1.98-1.01,2.99-1.47.12-.05.24-.1.32-.22-.07,0-.13-.03-.19-.02-2.83.8-5.56,1.84-8.03,3.46-.48.32-.95.66-1.42.99-.07.04-.15.07-.22.1,0,0-.04-.03-.04-.04.02-.06.04-.13.08-.17.21-.21.42-.43.65-.62.92-.76,1.85-1.52,2.84-2.2.07-.05.13-.11.18-.18.02-.02,0-.08,0-.12.02-.01.03-.03.05-.03.01,0,.04.03.04.03-.03.04-.06.04-.08-.01-.06.06-.12.13-.19.16-1.95.99-3.73,2.25-5.43,3.62-1.06.86-2.11,1.74-3.14,2.64-.5.43-.95.92-1.42,1.39-.29.29-.57.58-.86.86-.15.15-.31.3-.52.36-.05.02-.13,0-.17-.04-.04-.04-.07-.12-.05-.17.04-.14.1-.28.17-.41.36-.68.62-1.41.88-2.13.03-.1.02-.21.03-.31.03-.02.06-.05.08-.08,0,0-.02-.05-.02-.04-.08.02-.07.07-.05.13-.04,0-.09,0-.11.03-.12.15-.23.31-.35.46-.1.11-.22.2-.33.3-.02.02-.08,0-.11,0-.01,0-.03-.04-.02-.05.03-.12.05-.25.1-.37.29-.78.59-1.56.88-2.34.52-1.4,1.04-2.81,1.56-4.21.05-.14.1-.28.14-.43,0-.03-.02-.08-.03-.13-.36.21-.67.46-.91.8-.03.05-.11.11-.15.1-.1-.03-.19-.09-.28-.14-.02,0-.03-.04-.03-.06,0-.04-.03-.09-.02-.13.11-.4.06-.81.08-1.21.02-.56.09-1.11.15-1.66.04-.36.11-.72.17-1.08,0-.04-.01-.08-.02-.13-.11.04-.14.14-.17.23-.25.66-.56,1.3-.71,1.99-.01.06-.06.11-.1.16-.01.01-.04.02-.06.02-.01,0-.03-.02-.03-.04,0-.11-.01-.21,0-.32.1-.74.22-1.48.39-2.21.34-1.5.75-2.99,1.18-4.47.04-.12.1-.23.15-.35,0,0-.02-.02-.02-.02v.03c-.06-.04-.14-.08-.21,0-.15.15-.3.3-.45.45-.04.04-.11.06-.16.09-.04.02-.14-.02-.16-.06-.02-.04-.05-.08-.05-.11.03-.32-.01-.64-.03-.96-.01-.23,0-.47.02-.7.09-.89.23-1.78.4-2.65.08-.4.17-.79.26-1.19-.01,0,0,0,0,0-.04,0-.09-.03-.11-.01-.06.06-.12.12-.16.2-.91,1.6-1.67,3.27-2.22,5.03-.03.1-.06.21-.19.23-.08-.14-.04-.29-.02-.43.09-.64.23-1.26.4-1.88.12-.43.25-.86.37-1.29.05-.18.09-.37.14-.56,0-.01-.03-.05-.03-.05-.04.01-.09.02-.1.05-.47,1-.9,2.03-1.29,3.07-.4,1.06-.75,2.14-.99,3.25-.07.33-.14.67-.21,1,0,.04-.02.08-.03.12-.02.07-.11.13-.14.09-.02-.03-.06-.06-.06-.09-.03-.34,0-.68.04-1.02.13-.91.31-1.81.53-2.7.13-.54.27-1.08.4-1.62.04-.17.09-.33.05-.51.08,0,.09-.06.1-.12,0-.05,0-.08-.06-.08,0,0-.03.03-.03.05,0,.06,0,.11,0,.17-.04.01-.09.02-.11.05-.06.11-.12.23-.17.34-.71,1.57-1.19,3.21-1.52,4.89-.21,1.03-.37,2.06-.49,3.1-.16,1.27-.27,2.55-.23,3.84,0,.13-.02.25-.03.38,0,.02-.03.05-.04.05-.04,0-.09-.02-.1-.04-.08-.24-.13-.5-.14-.76-.05-1.54-.06-3.08.05-4.62.13-1.9.42-3.78.8-5.65.01-.06,0-.12,0-.2-.12.1-.17.22-.22.34-.32.86-.56,1.75-.76,2.65-.23,1.05-.4,2.1-.49,3.17-.07.96-.12,1.92-.13,2.89-.01.94.02,1.88.04,2.82.01.86.03,1.71.04,2.57,0,.28-.02.56-.09.83-.02.06-.05.12-.07.18-.03.07-.16.1-.22.05-.11-.1-.22-.2-.31-.32-.23-.28-.45-.57-.67-.86-.94-1.25-1.92-2.46-2.98-3.61-1.87-2.02-3.97-3.77-6.31-5.22-.27-.17-.55-.33-.83-.49-.14-.07-.28-.02-.42-.03-.02,0-.04,0-.05-.02,0-.01,0-.04.01-.05.05-.02.08,0,.08.04,0,0-.03.02-.04.03.14,0,.28.09.43.01,0,.04-.02.1,0,.12.09.09.18.18.29.25.72.51,1.39,1.06,2.04,1.65,1.62,1.46,3.18,2.98,4.62,4.62.24.27.49.54.66.86.02.04,0,.08-.04.1-.02,0-.04,0-.06,0-.06-.03-.11-.06-.16-.1-.11-.1-.22-.21-.32-.31-2.35-2.24-4.93-4.15-7.8-5.67-.91-.48-1.83-.91-2.8-1.27-.1-.04-.19-.09-.28-.13-.02.02-.05.04-.07.05,0-.01,0-.03,0-.04.03,0,.06,0,.09,0,.03.05.05.13.09.16.14.1.29.18.44.26,1.74.97,3.4,2.07,4.97,3.3.49.38.97.78,1.4,1.22.18.18.36.37.49.59.02.03.02.09,0,.1-.03.02-.09.04-.11.02-.14-.1-.28-.2-.41-.31-.49-.41-1.02-.78-1.57-1.12-1.33-.82-2.69-1.59-4.13-2.2-.33-.14-.68-.27-1.02-.4-.03-.01-.08,0-.12,0-.03,0,0,.1.06.15.1.08.2.16.3.25,1.77,1.48,3.55,2.96,5.32,4.45.56.47,1.11.95,1.65,1.43.33.3.65.62.97.93h.01c-.07.04-.16.07-.24.04-.14-.06-.27-.13-.4-.21-.48-.27-.97-.55-1.45-.83-.09-.05-.18-.11-.3-.1-.02-.06-.03-.07-.04-.03,0,0,.03,0,.05.01.02.06.03.13.06.17.16.2.33.39.49.59.12.15.22.31.26.51,0,.02,0,.05-.02.05-.03.01-.09.04-.11.02-.16-.11-.31-.22-.46-.34-.66-.52-1.33-1.01-2.04-1.44-.95-.58-1.95-1.06-3.02-1.4-.65-.21-1.33-.34-2-.43-.19-.03-.38-.04-.58-.01.03.05.04.1.06.11.17.08.35.16.53.23,1.43.62,2.83,1.32,4.17,2.12,1.23.74,2.36,1.63,3.38,2.65.8.8,1.55,1.65,2.29,2.52.53.62,1.04,1.25,1.57,1.87.25.29.51.58.76.87.08.1.18.19.2.32,0,.02,0,.04-.02.05-.01.01-.04.03-.05.03-.06-.02-.13-.03-.18-.06-.2-.16-.39-.33-.59-.5-.51-.42-1.02-.85-1.53-1.27-.07-.05-.13-.11-.23-.1-.02-.1-.08-.12-.17-.1l-.02-.03s.04.01.04.01c.02.07.05.13.13.13-.01.09.02.17.07.24.14.22.27.44.4.66.2.35.38.72.52,1.1.03.08.04.16,0,.25-.15-.05-.23-.19-.32-.3-.37-.45-.76-.87-1.19-1.26-.65-.6-1.36-1.11-2.16-1.49-.56-.27-1.15-.46-1.76-.58-.12-.03-.25,0-.38,0-.01,0-.03.02-.04.04,0,.02-.01.05,0,.06.1.11.21.22.32.32.53.5,1.05,1.01,1.45,1.62.23.34.54.55.94.62.94.18,1.77.62,2.56,1.15.8.54,1.55,1.14,2.27,1.78.17.16.37.3.46.53,0,.02.01.05,0,.06-.03.03-.06.06-.1.06-.06,0-.13-.02-.18-.05-.27-.13-.54-.27-.8-.4-.82-.42-1.66-.8-2.52-1.12-.6-.22-1.21-.42-1.85-.5-.28-.04-.55-.07-.83-.08-.3-.01-.6-.01-.9,0-1.02.03-2-.14-2.97-.45-.53-.17-1.06-.33-1.59-.49.01.04,0,.05-.02.01.01,0,.02,0,.04,0,.06.15.21.2.34.28.56.36,1.08.77,1.57,1.21.01,0,0,.04,0,.06,0,.02-.03.04-.04.04-.1-.02-.21-.03-.3-.08-.29-.13-.58-.28-.86-.42-1.61-.83-3.33-1.32-5.12-1.6-.64-.1-1.27-.15-1.91-.19-.9-.05-1.79.04-2.69.16-.55.07-1.09.19-1.64.32-.16.04-.33.06-.48.17.04.02.07.05.1.06.15,0,.3,0,.45,0,.98-.06,1.97-.04,2.95.03.9.06,1.79.17,2.67.37.17.04.33.08.47.19-.02.03-.03.09-.06.09-.08.03-.16.05-.25.06-.19,0-.38-.01-.58-.02-.36,0-.73-.04-1.09-.02-.75.04-1.49.12-2.24.18-.75.06-1.49.17-2.22.31-1.77.33-3.49.84-5.11,1.65-1.06.53-2.03,1.18-2.93,1.95-.08.07-.18.13-.17.25-.05-.02-.08,0-.1.04,0,0,.03.04.04.04.05,0,.07-.04.05-.09.06,0,.13,0,.19-.02.19-.1.37-.21.56-.31.99-.55,1.99-1.08,3.03-1.53,1.02-.44,2.07-.8,3.17-1.02.99-.2,1.99-.27,3-.13.38.06.76.1,1.14.15.49.06.97.17,1.39.41.37-.09.73-.17,1.08-.26.74-.19,1.49-.17,2.23-.07.51.07,1.01.17,1.51.31.39.11.79.19,1.18.29.21.05.41.12.56.29.01.02,0,.08-.02.1-.03.03-.08.05-.11.04-.25-.03-.51-.06-.76-.1-.95-.14-1.91-.23-2.87-.12-.58.07-1.14.2-1.67.43-.39.17-.77.37-1.15.56-.05.03-.09.09-.13.14.03.01.04.03.06.02.23-.04.46-.07.69-.12.69-.15,1.39-.24,2.09-.31.28-.03.56-.02.83,0,.13,0,.25.05.37.08.04,0,.07.05.11.07-.16.12-.36.11-.54.16-.58.15-1.16.28-1.74.42-.19.05-.37.1-.55.18-.77.36-1.54.74-2.31,1.11-.05.03-.09.08-.14.12-.04,0-.08.01-.11.02-.06.02-.06.04,0,.07.01,0,.05,0,.05,0,.02-.03.03-.07.04-.1.13.04.25.01.38-.02.28-.09.57-.18.86-.26.76-.22,1.54-.34,2.34-.35.85,0,1.71,0,2.56.13.19.03.38.07.57.1.28.05.55.03.82-.08.16-.07.32-.11.47-.19.52-.27,1.07-.43,1.63-.55.73-.15,1.47-.28,2.22-.32.49-.02.98-.05,1.47-.08.11,0,.21,0,.32.01.07,0,.16.08.13.11-.03.03-.05.06-.08.07-.13.02-.26.03-.38.06-.75.17-1.5.34-2.24.53-.21.05-.41.13-.6.21-.49.2-.99.4-1.48.61-.19.08-.37.2-.56.31-.03.02-.03.07-.05.11-.14-.03-.22.07-.32.13.04-.02.05-.02.02.02v-.04s.11,0,.17-.01c.06,0,.1-.05.12-.11.13.04.25,0,.37-.05.4-.14.81-.29,1.21-.41.39-.11.78-.23,1.19-.22.02,0,.05.02.05.03.02.05,0,.09-.03.11-.19.09-.38.19-.58.27-1.38.6-2.68,1.34-3.86,2.26-.07.05-.15.08-.22.12.01.03.02.05.02.05,0,0-.01-.03-.02-.06.09.07.2.09.3.05.2-.08.39-.17.59-.26,1.09-.5,2.2-.94,3.35-1.3,1.31-.41,2.65-.7,4.02-.81,1.09-.09,2.18-.1,3.27.06.34.05.68.1,1.01.16.51.1.99.28,1.44.52.09.05.19.1.28.16.28.18.59.25.92.22.09,0,.17,0,.26,0,.82-.04,1.62.09,2.42.26.06.01.12.05.17.08.03.02.06.07.06.11,0,.03-.04.08-.07.1-.08.03-.16.07-.24.07-1.4.1-2.73.48-4.04.96-1.19.44-2.33.97-3.43,1.6-.05.03-.09.07-.14.11.13.04.23,0,.33-.03.3-.06.59-.07.89-.03.03,0,.07.04.09.07.04.03-.02.12-.09.15-.12.05-.24.09-.36.13-.16.06-.32.11-.48.17-1,.37-1.99.79-2.92,1.32-.6.34-1.21.65-1.81.97-.08.04-.15.08-.15.2.19-.02.38-.04.57-.07.17-.02.34-.06.51-.08.3-.04.59-.09.89-.04-.01.04-.01.07-.02.07-.09.05-.19.1-.29.12-.71.17-1.38.46-2.06.71-.3.11-.59.25-.88.4-.48.24-.96.48-1.42.74-.35.2-.69.43-1.03.65-.05.03-.05.11-.01.17-.03-.02-.07-.04-.1-.05,0,0-.04.03-.04.03.04.07.09,0,.13,0,.61-.19,1.22-.38,1.85-.49.06-.01.12,0,.19,0,.01,0,.03.02.04.03,0,.02,0,.05,0,.06-.07.11-.19.16-.31.21-.6.24-1.15.56-1.69.9-.76.47-1.48,1-2.16,1.6-.06.06-.12.12-.18.18-.07.08-.05.15,0,.23,0,0-.03-.02-.03-.02l.02.03s.04-.08.08-.1c.43-.28.89-.52,1.36-.72.1-.04.2-.07.31-.02.02,0,.04.02.04.04,0,.02,0,.04,0,.06-.06.12-.18.18-.28.25-1.29.92-2.45,1.99-3.51,3.18-.11.13-.23.26-.33.4-.03.04-.02.12-.04.18q-.11.02-.11.14c-.09-.02-.15.05-.21.09.04,0,.05,0,.01.02,0-.01,0-.03,0-.04.08.01.15,0,.18-.09.08-.01.12-.05.11-.14.1.01.16-.05.22-.1.26-.23.51-.46.77-.68.91-.78,1.87-1.5,2.9-2.11,1.02-.6,2.08-1.09,3.22-1.39.54-.14,1.08-.24,1.63-.32.29-.04.53-.15.71-.38.16-.2.33-.39.5-.58.28-.32.59-.62.93-.88.35-.28.74-.51,1.16-.67.06-.02.12-.04.18-.04.04,0,.09.02.11.05.02.03,0,.08-.01.12-.09.18-.25.29-.38.43-.62.63-1.12,1.34-1.53,2.12-.02.03,0,.08,0,.12,0,.05.07.03.16-.03.16-.11.31-.23.47-.33.07-.04.16-.05.24-.08.02,0,.05,0,.06.02.02.03.05.08.04.11-.08.2-.22.37-.37.52-.64.67-1.18,1.41-1.71,2.16-.2.28-.39.56-.53.87.03.05.07.07.11.04.15-.11.3-.24.46-.35.09-.06.19-.09.29-.12.03,0,.07.03.1.05.01,0,.01.04,0,.06-.02.16-.13.27-.22.38-.55.64-.96,1.36-1.37,2.09-.06.11-.13.22-.14.35.02.05.06.06.1.02.15-.12.3-.24.45-.36,0,0,0,0,0,0,.05.1.07.21,0,.31-.11.18-.23.36-.34.54-.77,1.22-1.32,2.54-1.76,3.91,0,.02.03.07.05.09,0,0,.04,0,.06-.02.03-.03.07-.05.1-.08,1.28-1.5,2.45-3.07,3.45-4.77.82-1.38,1.48-2.84,2.07-4.34.22-.56.43-1.12.65-1.67.13-.32.26-.63.4-.95.75-1.73,1.85-3.22,3.26-4.47.18-.16.36-.31.55-.44.38-.26.68-.58.93-.96.13-.2.27-.38.42-.56.12-.15.27-.28.45-.34.03-.01.09,0,.11.02.02.02.04.08.03.11-.03.1-.07.2-.11.3-.11.26-.22.51-.33.77-.27.65-.44,1.34-.55,2.04-.01.08,0,.17,0,.25,0,.01.02.04.03.04.02,0,.05,0,.06-.01.11-.16.21-.32.33-.47.06-.08.14-.16.23-.22.02-.02.08,0,.12,0h-.02c.04.17-.02.33-.07.49-.25.94-.51,1.89-.76,2.83-.03.1-.06.21-.07.31,0,.08.03.16.04.24,0,0-.04,0-.04,0l.02.03c.07-.08.13-.17.21-.24.04-.04.11-.05.17-.06.05,0,.07.07.05.16-.07.29-.14.58-.22.87-.1.38-.13.76-.16,1.14-.03.59,0,1.29.08,1.92.1-.04.07-.13.08-.2.21-1.87.54-3.73,1.04-5.55.25-.89.57-1.75.99-2.57.5-.97,1.16-1.79,2.01-2.47.12-.09.25-.17.38-.24.11-.06.28,0,.33.11.04.08.09.15.1.24.04.26.17.48.31.7.4.61.72,1.26.98,1.95.05.14.11.28.17.41.09.19.25.28.47.26.15-.01.3-.05.45-.06.32-.03.64-.08.96-.03.05,0,.08.03.08.08,0,.04-.01.09-.03.11-.11.14-.27.21-.42.29-.21.1-.43.19-.64.3-.09.05-.18.11-.26.18-.04.04-.06.11-.06.17,0,.06.03.12.05.18.15.54.3,1.07.45,1.61.02.06.04.12.06.18.05.13.13.23.27.24.21.02.43.04.64.05.19,0,.39-.02.58,0,.08,0,.16.05.24.08.05.02.06.13,0,.16-.11.07-.21.15-.32.2-.24.1-.48.18-.72.28-.1.04-.18.11-.26.18-.07.06-.1.14-.09.23,0,.06.01.13.03.19.18.66.37,1.32.49,1.99.03.16.13.27.3.3.15.03.29.05.44.07.4.06.81.1,1.21.16.06,0,.12.05.17.08.05.03.05.08,0,.11-.09.06-.18.12-.27.16-.43.19-.88.34-1.34.43-.11.02-.19.12-.17.23.05.36.11.72.17,1.08.04.23.07.47.11.7.01.08.03.17.05.25.04.18.13.26.31.28.38.04.77.08,1.15.11.24.02.46.08.68.17.06.02.1.08.15.12.04.03.03.15-.01.17-.11.05-.23.11-.35.15-.51.17-1.01.34-1.52.51-.11.04-.17.13-.16.25.08.9.16,1.79.24,2.69.02.17.05.34.08.51.02.11.12.17.24.16.62-.1,1.24-.1,1.86-.1.32,0,.64.02.96.04.03,0,.06.04.09.07.04.03-.01.12-.08.15-.02,0-.04.02-.06.03-.82.23-1.61.56-2.43.83-.08.03-.17.04-.25.07-.11.04-.18.11-.2.23-.01.11-.02.21-.02.32,0,.24.01.47.03.71.1,1.26.12,2.52.12,3.79,0,.15-.02.3.08.45.09,0,.2,0,.3-.02.77-.13,1.53-.12,2.3,0,.21.03.42.06.63.1.08.02.16.06.23.09.05.02.05.06,0,.1-.05.04-.1.09-.16.11-.58.14-1.17.27-1.75.42-.4.1-.8.15-1.21.16-.09,0-.17,0-.26,0-.11,0-.19.1-.19.21,0,.06,0,.13-.01.19-.05,1.48-.09,2.95-.14,4.43,0,.17,0,.34,0,.51,0,.14.1.22.25.23.11,0,.21,0,.32.01,1.18.02,2.34.2,3.5.42.03,0,.07.05.07.07,0,.04-.04.07-.07.1-.03.02-.08.04-.12.04-.57.1-1.14.19-1.71.28-.65.11-1.31.22-1.96.33-.08.01-.17.03-.25.05-.08.02-.14.09-.15.18-.02.26-.04.51-.06.77-.07,1-.22,2-.39,2.99-.01.08.04.17.13.19.1.03.21.06.31.07,1.04.15,2.08.28,3.11.43.32.04.63.1.95.16-.04.1-.08.18-.18.19-.15.02-.3.05-.44.06-.74.08-1.49.17-2.23.25-.43.05-.85.08-1.28.13-.17.02-.34.04-.51.07-.05.01-.1.08-.13.13-.02.03-.03.08-.03.12-.17,1.19-.48,2.35-.83,3.49-.06.18-.12.36-.13.56.12.14.3.17.46.21.66.18,1.32.35,1.98.53.47.13.95.26,1.42.4.12.04.22.11.33.18.01,0,.01.04.01.05,0,.02-.02.05-.03.05-.08.02-.17.03-.25.03-.81-.01-1.63-.03-2.44-.04-.6,0-1.2-.01-1.8-.02-.17,0-.3.07-.36.22-.33.81-.88,1.46-1.4,2.15-.16.21-.33.4-.56.52-.16.09-.31,0-.35-.16-.03-.1-.04-.22-.01-.31.29-1.09.52-2.2.96-3.26.54-1.29.89-2.63,1.18-4,.29-1.34.51-2.69.68-4.05.17-1.38.29-2.77.38-4.16.19-2.95.17-5.91.08-8.86-.03-1.07-.12-2.14-.2-3.21-.05-.66-.1-1.32-.17-1.98-.1-.92-.21-1.83-.33-2.74-.33-2.53-.94-5-1.53-7.48-.34-1.44-.69-2.87-1.02-4.31-.1-.44-.17-.88-.25-1.32,0-.03-.05-.06-.07-.09-.03-.04-.1,0-.14.09-.02.04-.03.08-.05.12-.15.31-.28.63-.44.93-.75,1.34-1.23,2.77-1.57,4.26-.3,1.29-.51,2.6-.67,3.92-.17,1.4-.25,2.82-.33,4.23-.02.37-.07.72-.15,1.08-.19.77-.46,1.51-.84,2.21-.13.24-.29.47-.46.7-.07.1-.18.18-.28.26-.06.05-.2,0-.21-.06-.02-.17-.04-.34-.05-.51-.03-.58-.05-1.16-.09-1.73-.05-.66-.17-1.32-.31-1.96-.06-.29-.18-.57-.28-.85-.12-.32-.26-.63-.38-.95-.46-1.19-.7-2.42-.72-3.7-.02-1.29.1-2.57.35-3.83.02-.1.02-.21.03-.32,0-.01-.02-.04-.03-.04-.02,0-.05,0-.06.01-.06.08-.13.17-.18.26-.29.5-.53,1.03-.74,1.57-.35.9-.69,1.8-1.03,2.7-.4,1.06-.82,2.12-1.31,3.14-.7,1.48-1.53,2.87-2.56,4.14-.93,1.16-1.99,2.18-3.17,3.08-.19.14-.39.27-.56.42-.32.3-.72.46-1.11.62-.09.04-.22-.03-.26-.13-.08-.2-.11-.41-.12-.63-.02-.96-.06-1.93-.01-2.89.08-1.51.42-2.96,1.11-4.32.51-1,1.08-1.94,1.85-2.77.15-.16.28-.32.4-.5.07-.09.2-.17.13-.32-.12-.04-.2.04-.29.09-2.02,1.12-4.01,2.31-5.89,3.65-1.82,1.29-3.54,2.7-5.11,4.29-.5.5-.99,1.01-1.42,1.57-.06.08-.14.16-.22.23-.07.05-.15.08-.24.05-.06-.02-.13-.12-.12-.2.02-.19.04-.38.08-.57.11-.46.22-.92.34-1.37.35-1.28.75-2.54,1.24-3.78.47-1.18,1.06-2.29,1.79-3.33.9-1.29,1.91-2.47,3.02-3.58,1.84-1.84,3.85-3.47,6.05-4.85,1.86-1.17,3.84-2.06,5.91-2.76.12-.04.25-.08.36-.12.03-.01.04-.06.06-.1,0,0-.03-.03-.05-.03-.06-.01-.13-.03-.19-.03-1.11-.05-2.23-.03-3.34.06-.77.07-1.52.23-2.26.44-1.22.34-2.4.77-3.57,1.26-1.97.83-3.89,1.77-5.74,2.86-.48.28-.94.6-1.41.9-.16.1-.31.23-.51.25-.09-.06-.17-.13-.26-.18-.14-.07-.16-.2-.15-.33.02-.19.05-.38.1-.57.09-.33.18-.66.29-.98.52-1.57,1.45-2.85,2.73-3.88.52-.42,1.07-.78,1.63-1.14.03-.02.05-.06.07-.1,0,0-.02-.04-.03-.04-.06,0-.13-.01-.19,0-2.16.36-4.24,1.01-6.26,1.86-1.48.63-2.91,1.36-4.31,2.14-.43.24-.85.49-1.29.72-.22.12-.46.23-.68.34-.13-.13-.26-.14-.41-.11-.12.02-.22-.07-.21-.18,0-.13,0-.26.04-.38.49-1.41,1.19-2.7,2.25-3.77.56-.57,1.15-1.08,1.79-1.56.94-.71,1.95-1.32,2.96-1.93.18-.11.38-.19.57-.29.08-.04.15-.08.19-.2-.33.04-.65.06-.96.12-2.66.49-5.25,1.19-7.76,2.2-.77.31-1.53.68-2.24,1.11-.77.47-1.53.94-2.3,1.41-.26.16-.52.3-.78.45-.13.08-.28.1-.43.09-.19-.01-.37-.18-.37-.38,0-.11,0-.22.04-.31.06-.16.13-.32.22-.46.24-.38.49-.75.74-1.13.26-.39.54-.77.8-1.16.92-1.38,1.98-2.63,3.21-3.75,2.11-1.91,4.55-3.18,7.29-3.87,1.97-.49,3.96-.65,5.98-.56,2.61.12,5.12.66,7.57,1.57.46.17.91.38,1.34.61.13.07.25.05.36-.02-.03.03-.05.06-.08.09,0,0,.01.03.01.03.08-.01.03-.08.05-.12-.08-.04-.16-.06-.23-.11-.86-.6-1.72-1.2-2.58-1.79-.44-.31-.88-.61-1.31-.93-.16-.11-.3-.24-.44-.37-.13-.12-.08-.34.09-.42.08-.04.16-.08.24-.1.56-.14,1.12-.3,1.7-.33.49-.03.98-.04,1.47-.07.03,0,.06-.05.08-.08,0-.01,0-.05-.02-.06-.69-.54-1.41-1.04-2.18-1.46-1.39-.77-2.8-1.47-4.23-2.16-1.1-.53-2.21-1.03-3.31-1.55-.33-.15-.66-.31-.99-.47-.11-.06-.22-.14-.32-.21-.04-.03-.05-.13,0-.17.08-.07.15-.16.24-.21.3-.17.59-.35.9-.49,1.59-.7,3.25-1.06,4.99-.95.08,0,.16-.01.24-.02,0,0,.02-.04.02-.06-.02-.04-.03-.08-.06-.1-.29-.19-.57-.38-.86-.55-.63-.36-1.3-.64-1.98-.92-1.41-.57-2.85-1.05-4.29-1.52-.79-.26-1.58-.52-2.37-.79-.24-.08-.49-.16-.7-.32-.08-.06-.09-.21-.02-.28.09-.09.21-.14.33-.19.9-.39,1.83-.72,2.78-.98,1.3-.36,2.63-.6,3.98-.67.34-.02.68-.05,1.02-.07,2.58-.11,5.01.45,7.32,1.58,1.53.75,2.93,1.68,4.27,2.72.83.64,1.63,1.33,2.4,2.04,1.17,1.08,2.21,2.27,3.08,3.61.05.07.09.14.15.21.02.03.06.05.1.06.04.01.07-.07.06-.16-.05-.32-.1-.63-.17-.95-.16-.76-.23-1.52-.23-2.3,0-1.16.11-2.31.24-3.46.14-1.24.37-2.46.67-3.66.54-2.13,1.34-4.15,2.46-6.05.86-1.46,1.89-2.8,3.13-3.97,1.19-1.13,2.51-2.07,4.01-2.74.7-.32,1.43-.58,2.19-.7.32-.05.62-.15.91-.3.06-.03.12-.06.18-.07.06-.02.13-.02.17.04.03.05.06.11.06.17,0,.06-.01.13-.04.19-.04.1-.09.19-.14.29-.11.19-.22.37-.33.55-1.39,2.2-2.46,4.55-3.33,7-.18.5-.34,1.01-.51,1.52-.03.1-.05.2-.08.3.06,0,.11.02.13,0,.42-.4.86-.77,1.32-1.13.79-.61,1.67-1.03,2.65-1.24.27-.06.54-.12.81-.18.03,0,.1.01.11.04.03.05.06.13.03.17-.08.17-.17.35-.27.51-.21.35-.43.69-.65,1.03-1.95,3.05-3.36,6.35-4.27,9.86-.05.21-.1.42-.15.62,0,.03.02.1.03.1.04,0,.09,0,.12-.03.13-.11.25-.23.38-.35.75-.69,1.6-1.22,2.55-1.57.57-.21,1.15-.33,1.76-.33.06,0,.13.01.19.02.09.01.17.16.14.25-.02.06-.04.12-.07.18-.04.08-.09.15-.13.22-1.62,2.39-2.88,4.95-3.83,7.68-.12.34-.23.69-.34,1.04,0,.02.01.04.03.06,0,0,.04,0,.05,0,.15-.06.23-.19.33-.3,1.09-1.16,2.26-2.22,3.53-3.17,2.98-2.23,6.27-3.83,9.88-4.75,1.1-.28,2.22-.46,3.34-.6,2.32-.27,4.66-.28,6.99-.2.94.03,1.88.09,2.82.19.85.08,1.7.18,2.55.3.59.09,1.18.19,1.76.34.27.07.53.17.77.3v.13c-.13.12-.29.18-.46.2-.36.05-.72.1-1.08.15-.72.1-1.44.19-2.16.3-1.44.22-2.87.45-4.27.88-.29.09-.57.18-.85.28-1.11.39-2.22.79-3.32,1.18-.07.03-.15.07-.13.17,1.81.53,3.36,1.47,4.67,2.82.34.35.67.73.93,1.14.13.2.25.4.35.61.04.09.06.21.05.31,0,.05-.07.11-.12.13-.05.02-.12.02-.19.02-.68-.04-1.37-.1-2.05-.13-.66-.04-1.32-.07-1.99-.08-.9-.02-1.8-.04-2.7-.04-1.63,0-3.24.24-4.83.6-.85.19-1.7.41-2.55.62-.08.02-.16.05-.2.16.36.11.73.21,1.1.32.68.21,1.33.46,1.96.79.75.38,1.42.87,1.98,1.5.24.27.48.54.81.72.07.04.07.14,0,.21-.03.03-.07.06-.09.09-.07.14-.2.16-.33.13-.44-.11-.89-.12-1.34-.08-.34.03-.68.09-1.02.15-.88.15-1.77.31-2.65.48-1.74.33-3.48.71-5.16,1.27-.59.19-1.17.42-1.73.68-.6.28-1.16.63-1.71,1.01-.03.02-.04.06-.06.1-.01.04.06.07.16.06.19-.02.38-.03.57-.06,1.61-.26,3.24-.3,4.86-.25.79.03,1.58.12,2.36.23,1.34.19,2.64.51,3.93.92,2.27.74,4.39,1.79,6.37,3.12.48.32.93.68,1.37,1.06,1.29,1.14,2.11,2.57,2.54,4.23.04.17.09.33.12.5.02.1,0,.21-.02.32-.02.12-.18.22-.29.18-.08-.02-.16-.05-.24-.09-2.11-1.24-4.34-2.21-6.68-2.93-1-.31-2.02-.54-3.06-.69-.1-.01-.2-.04-.3.02,0,.1.1.14.17.18.34.19.65.42.92.69.62.61,1.05,1.34,1.31,2.18.2.64.25,1.3.35,1.95,0,.05-.03.13-.07.17-.07.05-.16.05-.24,0-.09-.05-.19-.11-.27-.17-1.4-1.11-2.9-2.04-4.43-2.95-.59-.35-1.2-.66-1.8-.98-.55-.29-1.13-.51-1.73-.68-.62-.18-1.22-.39-1.82-.63-.2-.08-.4-.14-.61-.2-.08-.03-.17,0-.24.05.02-.01.04-.02.04-.03,0-.01,0-.03,0-.04,0,.02-.02.04-.02.07Z"/>
    <path d="m512.97,490.55s-.02.06-.03.09c0-.02,0-.03,0-.05,0-.02.03-.03.04-.05,0,0,0,0,0,0Z"/>
    <path d="m519.48,510.02s-.03-.04,0-.03c0,0-.02.02-.02.03,0,0,.02,0,.02,0Z"/>
    <path d="m509.28,520.97s.01.05.02.08c0-.03-.01-.05-.02-.08,0,0,0,0,0,0Z"/>
  </g>
  <g>
    <path d="m342.84,514.53c2.26-4.1,5.36-7.3,9.29-9.59,3.93-2.29,8.31-3.44,13.14-3.44,5.89,0,10.94,1.4,15.14,4.19,4.2,2.79,7.26,6.73,9.18,11.82h-6.19c-1.51-3.57-3.81-6.37-6.91-8.38-3.09-2.01-6.83-3.02-11.21-3.02-3.88,0-7.37.91-10.46,2.72-3.1,1.81-5.53,4.42-7.29,7.82-1.76,3.4-2.64,7.34-2.64,11.82s.88,8.41,2.64,11.78c1.76,3.37,4.19,5.97,7.29,7.78,3.09,1.81,6.58,2.72,10.46,2.72,4.38,0,8.12-.99,11.21-2.98,3.1-1.99,5.4-4.75,6.91-8.27h6.19c-1.91,5.04-4.98,8.94-9.21,11.71-4.23,2.77-9.27,4.15-15.1,4.15-4.83,0-9.22-1.14-13.14-3.44-3.93-2.29-7.02-5.48-9.29-9.55-2.27-4.08-3.4-8.71-3.4-13.9s1.13-9.83,3.4-13.93Z"/>
    <path d="m477.05,502.11v52.79h-5.29v-24.7h-28.63v24.7h-5.29v-52.79h5.29v23.72h28.63v-23.72h5.29Z"/>
    <path d="m602.57,505.28c4.18,2.11,7.38,5.16,9.59,9.14,2.22,3.98,3.32,8.71,3.32,14.2s-1.11,10.13-3.32,14.08c-2.22,3.95-5.41,6.97-9.59,9.06-4.18,2.09-9.19,3.13-15.03,3.13h-15.63v-52.79h15.63c5.84,0,10.85,1.06,15.03,3.17Zm1.77,39.46c3.85-3.85,5.78-9.23,5.78-16.13s-1.93-12.38-5.78-16.28c-3.85-3.9-9.45-5.85-16.8-5.85h-10.35v44.03h10.35c7.35,0,12.95-1.93,16.8-5.78Z"/>
    <path d="m732.3,542.36h-24.02l-4.61,12.54h-5.59l19.26-52.11h5.97l19.18,52.11h-5.59l-4.61-12.54Zm-1.59-4.38l-10.42-28.55-10.42,28.55h20.85Z"/>
  </g>
  <g>
    <path d="m660.45,506.32c.13.17.26.34.39.51.29.41.5.84.61,1.33.12.51.1,1.02-.1,1.51-.1.24-.23.46-.44.62-.09.07-.18.11-.29.12-.13.01-.27-.05-.33-.16-.01-.02-.03-.03-.03-.05-.09-.4-.37-.67-.67-.92-1.04-.87-2.16-1.61-3.41-2.14-.29-.13-.6-.22-.9-.32-.06-.02-.13-.01-.19,0-.03,0-.07.06-.07.09.03.17.06.34.11.5.98,3.53,1.93,7.06,2.85,10.6.64,2.47,1.26,4.93,1.82,7.42.29,1.3.52,2.6.72,3.91.19,1.27.33,2.55.45,3.83.08.85.13,1.71.17,2.56.05.98.08,1.97.1,2.95.03,1.35-.02,2.7-.12,4.04-.02.36-.08.72-.12,1.09-.14,1.28-.25,2.56-.41,3.83-.2,1.63-.63,3.19-1.31,4.68-.31.68-.65,1.35-.98,2.02h-.26c-.04-.32-.03-.64.01-.96.1-.79.2-1.57.31-2.35.15-1.02.3-2.03.46-3.05.1-.66.19-1.31.29-1.97.11-.72.18-1.44.25-2.17.12-1.45.17-2.91.2-4.36.02-.94,0-1.88-.05-2.82-.02-.32-.03-.64-.04-.96-.04-.98-.12-1.97-.23-2.94-.09-.79-.18-1.57-.28-2.36-.18-1.44-.44-2.88-.73-4.3-.58-2.9-1.36-5.74-2.17-8.58-.45-1.58-.91-3.17-1.29-4.77-.23-.96-.43-1.92-.54-2.9-.11-1-.17-2.01,0-3.01.02-.12-.05-.22-.16-.24-.66-.08-1.31-.21-1.98-.09-.14.03-.3.01-.45.02-.05,0-.09-.03-.08-.07,0-.04.01-.1.04-.11.11-.07.22-.13.34-.18.52-.21,1.07-.29,1.62-.38.08-.01.17-.03.28-.05-.05-.07-.07-.13-.12-.15-.07-.04-.16-.06-.24-.07-.23-.04-.47-.07-.7-.11-.06-.01-.11-.05-.18-.08.16-.14.35-.18.54-.19.62-.06,1.24-.04,1.86.06.06.01.13.02.19.03.06-.07,0-.11-.03-.15-.08-.07-.17-.13-.25-.2-.01,0-.02-.05,0-.06.02-.03.06-.06.09-.06.13.02.25.04.37.08,1.32.4,2.55.99,3.71,1.72.11.07.21.14.32.21.1.06.2.04.3-.01-.03.02-.05.03-.08.05.03-.02.05-.03.08-.05-.24-.28-.38-.61-.5-.95-.04-.12-.09-.24-.13-.35-.53-.15-1.07-.14-1.58-.33-.03-.01-.06-.05-.1-.08.05-.04.1-.09.16-.1.5-.07,1-.19,1.52-.17.4.02.81,0,1.21,0,.03,0,.06-.05.08-.08,0,0-.02-.03-.03-.04-.06-.03-.12-.04-.17-.07-.05-.03-.09-.08-.15-.14.16-.07.3,0,.43.02.15.01.3.03.44.04.15.02.3.03.44.05.15.02.29.06.44.03-.02-.07-.04-.13-.05-.18.06-.07.14-.09.23-.09.42.03.85.04,1.27.13.25.06.5.11.75.15.12.02.25.02.38.03.02.02.05.05.07.07,0,0,.04-.02.04-.02-.02-.07-.07-.06-.12-.03,0-.04,0-.09-.01-.11-.06-.06-.13-.11-.19-.17-.01-.01-.01-.04,0-.06,0-.02.02-.04.03-.04.17-.05.34-.01.5.04.33.1.63.25.94.41.11.06.21.16.37.12,0-.06-.02-.11-.02-.17,0-.07.05-.12.1-.11.25.08.45.24.64.41.2.19.4.38.6.58.14.13.3.16.47.11.18-.05.37-.12.55-.17.54-.16,1.08-.24,1.65-.22.21,0,.43,0,.64,0,0-.04,0-.09-.01-.11-.03-.03-.07-.04-.11-.06-1.34-.5-2.69-.98-4.09-1.31-.77-.18-1.55-.33-2.33-.44-.08-.01-.16-.03-.27-.06.06-.07.09-.13.14-.15.1-.03.21-.04.32-.04.58-.01,1.15,0,1.73.05.38.04.77.05,1.15.07.03,0,.06-.04.09-.05-.03-.02-.06-.06-.09-.07-.72-.2-1.45-.37-2.19-.49-1.63-.26-3.27-.39-4.92-.39-.43,0-.85.04-1.28.05-.06,0-.11-.04-.17-.07,0,0,0-.04,0-.06,0-.01.02-.03.04-.04.84-.14,1.69-.26,2.55-.29.79-.02,1.58-.09,2.37-.14.04,0,.08-.02.12-.04-.03-.02-.05-.06-.08-.07-.32-.04-.64-.08-.96-.11-.81-.06-1.62-.1-2.43-.16-.83-.06-1.67-.06-2.5-.03-.62.02-1.24.03-1.86.03-.45,0-.9.04-1.32.22-.23.09-.46.07-.69,0-.03-.01-.07-.06-.08-.09,0-.04,0-.08.02-.12,0-.02.02-.04.04-.05.38-.23.63-.57.88-.92.56-.8,1.27-1.44,2.09-1.97.72-.46,1.49-.84,2.28-1.16.47-.19.96-.36,1.44-.54.14-.05.29-.08.4-.19-.1-.07-.21-.04-.31-.01-.57.17-1.15.33-1.72.52-.65.22-1.29.45-1.9.78-.23.12-.46.24-.73.21-.03,0-.06-.05-.08-.08,0-.01,0-.05,0-.06.04-.05.08-.1.13-.14.25-.17.49-.35.75-.48.55-.29,1.11-.56,1.67-.82,1.45-.65,2.93-1.19,4.47-1.57.35-.09.71-.15,1.07-.22.23-.04.46-.09.72-.14-.05-.05-.08-.08-.1-.09-.27-.05-.55-.11-.82-.15-.95-.13-1.88-.05-2.8.19-.23.06-.45.13-.68.18-.1.02-.21,0-.32,0-.05,0-.11-.1-.09-.15.04-.08.07-.16.12-.23.21-.27.46-.51.76-.69.89-.55,1.78-1.11,2.69-1.62,1.23-.7,2.54-1.23,3.92-1.55.11-.03.2-.07.23-.19.17.06.33.04.5.04.06,0,.08-.02.06-.06-.19-.05-.37,0-.55.03-1.06.13-2.1.38-3.14.63-.29.07-.58.13-.88.19-.03,0-.09-.03-.09-.05,0-.04.02-.09.05-.11.1-.07.21-.15.33-.2.41-.19.81-.38,1.23-.54,1.64-.64,3.33-1.09,5.06-1.37,1.25-.2,2.51-.23,3.77-.1.08,0,.17,0,.26,0-.02-.05-.02-.11-.05-.12-1.11-.56-2.27-.86-3.53-.71-.34.04-.67.12-1,.22-.16.05-.33.08-.5.11-.03,0-.08-.03-.1-.06s-.02-.09,0-.12c.09-.18.25-.29.4-.41.73-.55,1.55-.92,2.46-1,.47-.04.86-.22,1.23-.49.22-.17.45-.32.67-.49.04-.03.04-.1.07-.17-.56.04-1.09.14-1.61.25-1.89.38-3.75.86-5.57,1.49-.51.17-1,.38-1.48.6-.37.16-.74.33-1.13.43-.03,0-.08-.02-.12-.03.02-.04.02-.08.05-.11.1-.08.2-.16.31-.23.33-.2.66-.4,1-.58.98-.53,1.98-1.01,2.99-1.47.12-.05.24-.1.32-.22-.07,0-.13-.03-.19-.02-2.83.8-5.56,1.84-8.03,3.46-.48.32-.95.66-1.42.99-.07.04-.15.07-.22.1,0,0-.04-.03-.04-.04.02-.06.04-.13.08-.17.21-.21.42-.43.65-.62.92-.76,1.85-1.52,2.84-2.2.07-.05.13-.11.18-.18.02-.02,0-.08,0-.12.02-.01.03-.03.05-.03.01,0,.04.03.04.03-.03.04-.06.04-.08-.01-.06.06-.12.13-.19.16-1.95.99-3.73,2.25-5.43,3.62-1.06.86-2.11,1.74-3.14,2.64-.5.43-.95.92-1.42,1.39-.29.29-.57.58-.86.86-.15.15-.31.3-.52.36-.05.02-.13,0-.17-.04-.04-.04-.07-.12-.05-.17.04-.14.1-.28.17-.41.36-.68.62-1.41.88-2.13.03-.1.02-.21.03-.31.03-.02.06-.05.08-.08,0,0-.02-.05-.02-.04-.08.02-.07.07-.05.13-.04,0-.09,0-.11.03-.12.15-.23.31-.35.46-.1.11-.22.2-.33.3-.02.02-.08,0-.11,0-.01,0-.03-.04-.02-.05.03-.12.05-.25.1-.37.29-.78.59-1.56.88-2.34.52-1.4,1.04-2.81,1.56-4.21.05-.14.1-.28.14-.43,0-.03-.02-.08-.03-.13-.36.21-.67.46-.91.8-.03.05-.11.11-.15.1-.1-.03-.19-.09-.28-.14-.02,0-.03-.04-.03-.06,0-.04-.03-.09-.02-.13.11-.4.06-.81.08-1.21.02-.56.09-1.11.15-1.66.04-.36.11-.72.17-1.08,0-.04-.01-.08-.02-.13-.11.04-.14.14-.17.23-.25.66-.56,1.3-.71,1.99-.01.06-.06.11-.1.16-.01.01-.04.02-.06.02-.01,0-.03-.02-.03-.04,0-.11-.01-.21,0-.32.1-.74.22-1.48.39-2.21.34-1.5.75-2.99,1.18-4.47.04-.12.1-.23.15-.35,0,0-.02-.02-.02-.02v.03c-.06-.04-.14-.08-.21,0-.15.15-.3.3-.45.45-.04.04-.11.06-.16.09-.04.02-.14-.02-.16-.06-.02-.04-.05-.08-.05-.11.03-.32-.01-.64-.03-.96-.01-.23,0-.47.02-.7.09-.89.23-1.78.4-2.65.08-.4.17-.79.26-1.19-.01,0,0,0,0,0-.04,0-.09-.03-.11-.01-.06.06-.12.12-.16.2-.91,1.6-1.67,3.27-2.22,5.03-.03.1-.06.21-.19.23-.08-.14-.04-.29-.02-.43.09-.64.23-1.26.4-1.88.12-.43.25-.86.37-1.29.05-.18.09-.37.14-.56,0-.01-.03-.05-.03-.05-.04.01-.09.02-.1.05-.47,1-.9,2.03-1.29,3.07-.4,1.06-.75,2.14-.99,3.25-.07.33-.14.67-.21,1,0,.04-.02.08-.03.12-.02.07-.11.13-.14.09-.02-.03-.06-.06-.06-.09-.03-.34,0-.68.04-1.02.13-.91.31-1.81.53-2.7.13-.54.27-1.08.4-1.62.04-.17.09-.33.05-.51.08,0,.09-.06.1-.12,0-.05,0-.08-.06-.08,0,0-.03.03-.03.05,0,.06,0,.11,0,.17-.04.01-.09.02-.11.05-.06.11-.12.23-.17.34-.71,1.57-1.19,3.21-1.52,4.89-.21,1.03-.37,2.06-.49,3.1-.16,1.27-.27,2.55-.23,3.84,0,.13-.02.25-.03.38,0,.02-.03.05-.04.05-.04,0-.09-.02-.1-.04-.08-.24-.13-.5-.14-.76-.05-1.54-.06-3.08.05-4.62.13-1.9.42-3.78.8-5.65.01-.06,0-.12,0-.2-.12.1-.17.22-.22.34-.32.86-.56,1.75-.76,2.65-.23,1.05-.4,2.1-.49,3.17-.07.96-.12,1.92-.13,2.89-.01.94.02,1.88.04,2.82.01.86.03,1.71.04,2.57,0,.28-.02.56-.09.83-.02.06-.05.12-.07.18-.03.07-.16.1-.22.05-.11-.1-.22-.2-.31-.32-.23-.28-.45-.57-.67-.86-.94-1.25-1.92-2.46-2.98-3.61-1.87-2.02-3.97-3.77-6.31-5.22-.27-.17-.55-.33-.83-.49-.14-.07-.28-.02-.42-.03-.02,0-.04,0-.05-.02,0-.01,0-.04.01-.05.05-.02.08,0,.08.04,0,0-.03.02-.04.03.14,0,.28.09.43.01,0,.04-.02.1,0,.12.09.09.18.18.29.25.72.51,1.39,1.06,2.04,1.65,1.62,1.46,3.18,2.98,4.62,4.62.24.27.49.54.66.86.02.04,0,.08-.04.1-.02,0-.04,0-.06,0-.06-.03-.11-.06-.16-.1-.11-.1-.22-.21-.32-.31-2.35-2.24-4.93-4.15-7.8-5.67-.91-.48-1.83-.91-2.8-1.27-.1-.04-.19-.09-.28-.13-.02.02-.05.04-.07.05,0-.01,0-.03,0-.04.03,0,.06,0,.09,0,.03.05.05.13.09.16.14.1.29.18.44.26,1.74.97,3.4,2.07,4.97,3.3.49.38.97.78,1.4,1.22.18.18.36.37.49.59.02.03.02.09,0,.1-.03.02-.09.04-.11.02-.14-.1-.28-.2-.41-.31-.49-.41-1.02-.78-1.57-1.12-1.33-.82-2.69-1.59-4.13-2.2-.33-.14-.68-.27-1.02-.4-.03-.01-.08,0-.12,0-.03,0,0,.1.06.15.1.08.2.16.3.25,1.77,1.48,3.55,2.96,5.32,4.45.56.47,1.11.95,1.65,1.43.33.3.65.62.97.93h.01c-.07.04-.16.07-.24.04-.14-.06-.27-.13-.4-.21-.48-.27-.97-.55-1.45-.83-.09-.05-.18-.11-.3-.1-.02-.06-.03-.07-.04-.03,0,0,.03,0,.05.01.02.06.03.13.06.17.16.2.33.39.49.59.12.15.22.31.26.51,0,.02,0,.05-.02.05-.03.01-.09.04-.11.02-.16-.11-.31-.22-.46-.34-.66-.52-1.33-1.01-2.04-1.44-.95-.58-1.95-1.06-3.02-1.4-.65-.21-1.33-.34-2-.43-.19-.03-.38-.04-.58-.01.03.05.04.1.06.11.17.08.35.16.53.23,1.43.62,2.83,1.32,4.17,2.12,1.23.74,2.36,1.63,3.38,2.65.8.8,1.55,1.65,2.29,2.52.53.62,1.04,1.25,1.57,1.87.25.29.51.58.76.87.08.1.18.19.2.32,0,.02,0,.04-.02.05-.01.01-.04.03-.05.03-.06-.02-.13-.03-.18-.06-.2-.16-.39-.33-.59-.5-.51-.42-1.02-.85-1.53-1.27-.07-.05-.13-.11-.23-.1-.02-.1-.08-.12-.17-.1l-.02-.03s.04.01.04.01c.02.07.05.13.13.13-.01.09.02.17.07.24.14.22.27.44.4.66.2.35.38.72.52,1.1.03.08.04.16,0,.25-.15-.05-.23-.19-.32-.3-.37-.45-.76-.87-1.19-1.26-.65-.6-1.36-1.11-2.16-1.49-.56-.27-1.15-.46-1.76-.58-.12-.03-.25,0-.38,0-.01,0-.03.02-.04.04,0,.02-.01.05,0,.06.1.11.21.22.32.32.53.5,1.05,1.01,1.45,1.62.23.34.54.55.94.62.94.18,1.77.62,2.56,1.15.8.54,1.55,1.14,2.27,1.78.17.16.37.3.46.53,0,.02.01.05,0,.06-.03.03-.06.06-.1.06-.06,0-.13-.02-.18-.05-.27-.13-.54-.27-.8-.4-.82-.42-1.66-.8-2.52-1.12-.6-.22-1.21-.42-1.85-.5-.28-.04-.55-.07-.83-.08-.3-.01-.6-.01-.9,0-1.02.03-2-.14-2.97-.45-.53-.17-1.06-.33-1.59-.49.01.04,0,.05-.02.01.01,0,.02,0,.04,0,.06.15.21.2.34.28.56.36,1.08.77,1.57,1.21.01,0,0,.04,0,.06,0,.02-.03.04-.04.04-.1-.02-.21-.03-.3-.08-.29-.13-.58-.28-.86-.42-1.61-.83-3.33-1.32-5.12-1.6-.64-.1-1.27-.15-1.91-.19-.9-.05-1.79.04-2.69.16-.55.07-1.09.19-1.64.32-.16.04-.33.06-.48.17.04.02.07.05.1.06.15,0,.3,0,.45,0,.98-.06,1.97-.04,2.95.03.9.06,1.79.17,2.67.37.17.04.33.08.47.19-.02.03-.03.09-.06.09-.08.03-.16.05-.25.06-.19,0-.38-.01-.58-.02-.36,0-.73-.04-1.09-.02-.75.04-1.49.12-2.24.18-.75.06-1.49.17-2.22.31-1.77.33-3.49.84-5.11,1.65-1.06.53-2.03,1.18-2.93,1.95-.08.07-.18.13-.17.25-.05-.02-.08,0-.1.04,0,0,.03.04.04.04.05,0,.07-.04.05-.09.06,0,.13,0,.19-.02.19-.1.37-.21.56-.31.99-.55,1.99-1.08,3.03-1.53,1.02-.44,2.07-.8,3.17-1.02.99-.2,1.99-.27,3-.13.38.06.76.1,1.14.15.49.06.97.17,1.39.41.37-.09.73-.17,1.08-.26.74-.19,1.49-.17,2.23-.07.51.07,1.01.17,1.51.31.39.11.79.19,1.18.29.21.05.41.12.56.29.01.02,0,.08-.02.1-.03.03-.08.05-.11.04-.25-.03-.51-.06-.76-.1-.95-.14-1.91-.23-2.87-.12-.58.07-1.14.2-1.67.43-.39.17-.77.37-1.15.56-.05.03-.09.09-.13.14.03.01.04.03.06.02.23-.04.46-.07.69-.12.69-.15,1.39-.24,2.09-.31.28-.03.56-.02.83,0,.13,0,.25.05.37.08.04,0,.07.05.11.07-.16.12-.36.11-.54.16-.58.15-1.16.28-1.74.42-.19.05-.37.1-.55.18-.77.36-1.54.74-2.31,1.11-.05.03-.09.08-.14.12-.04,0-.08.01-.11.02-.06.02-.06.04,0,.07.01,0,.05,0,.05,0,.02-.03.03-.07.04-.1.13.04.25.01.38-.02.28-.09.57-.18.86-.26.76-.22,1.54-.34,2.34-.35.85,0,1.71,0,2.56.13.19.03.38.07.57.1.28.05.55.03.82-.08.16-.07.32-.11.47-.19.52-.27,1.07-.43,1.63-.55.73-.15,1.47-.28,2.22-.32.49-.02.98-.05,1.47-.08.11,0,.21,0,.32.01.07,0,.16.08.13.11-.03.03-.05.06-.08.07-.13.02-.26.03-.38.06-.75.17-1.5.34-2.24.53-.21.05-.41.13-.6.21-.49.2-.99.4-1.48.61-.19.08-.37.2-.56.31-.03.02-.03.07-.05.11-.14-.03-.22.07-.32.13.04-.02.05-.02.02.02v-.04s.11,0,.17-.01c.06,0,.1-.05.12-.11.13.04.25,0,.37-.05.4-.14.81-.29,1.21-.41.39-.11.78-.23,1.19-.22.02,0,.05.02.05.03.02.05,0,.09-.03.11-.19.09-.38.19-.58.27-1.38.6-2.68,1.34-3.86,2.26-.07.05-.15.08-.22.12.01.03.02.05.02.05,0,0-.01-.03-.02-.06.09.07.2.09.3.05.2-.08.39-.17.59-.26,1.09-.5,2.2-.94,3.35-1.3,1.31-.41,2.65-.7,4.02-.81,1.09-.09,2.18-.1,3.27.06.34.05.68.1,1.01.16.51.1.99.28,1.44.52.09.05.19.1.28.16.28.18.59.25.92.22.09,0,.17,0,.26,0,.82-.04,1.62.09,2.42.26.06.01.12.05.17.08.03.02.06.07.06.11,0,.03-.04.08-.07.1-.08.03-.16.07-.24.07-1.4.1-2.73.48-4.04.96-1.19.44-2.33.97-3.43,1.6-.05.03-.09.07-.14.11.13.04.23,0,.33-.03.3-.06.59-.07.89-.03.03,0,.07.04.09.07.04.03-.02.12-.09.15-.12.05-.24.09-.36.13-.16.06-.32.11-.48.17-1,.37-1.99.79-2.92,1.32-.6.34-1.21.65-1.81.97-.08.04-.15.08-.15.2.19-.02.38-.04.57-.07.17-.02.34-.06.51-.08.3-.04.59-.09.89-.04-.01.04-.01.07-.02.07-.09.05-.19.1-.29.12-.71.17-1.38.46-2.06.71-.3.11-.59.25-.88.4-.48.24-.96.48-1.42.74-.35.2-.69.43-1.03.65-.05.03-.05.11-.01.17-.03-.02-.07-.04-.1-.05,0,0-.04.03-.04.03.04.07.09,0,.13,0,.61-.19,1.22-.38,1.85-.49.06-.01.12,0,.19,0,.01,0,.03.02.04.03,0,.02,0,.05,0,.06-.07.11-.19.16-.31.21-.6.24-1.15.56-1.69.9-.76.47-1.48,1-2.16,1.6-.06.06-.12.12-.18.18-.07.08-.05.15,0,.23,0,0-.03-.02-.03-.02l.02.03s.04-.08.08-.1c.43-.28.89-.52,1.36-.72.1-.04.2-.07.31-.02.02,0,.04.02.04.04,0,.02,0,.04,0,.06-.06.12-.18.18-.28.25-1.29.92-2.45,1.99-3.51,3.18-.11.13-.23.26-.33.4-.03.04-.02.12-.04.18q-.11.02-.11.14c-.09-.02-.15.05-.21.09.04,0,.05,0,.01.02,0-.01,0-.03,0-.04.08.01.15,0,.18-.09.08-.01.12-.05.11-.14.1.01.16-.05.22-.1.26-.23.51-.46.77-.68.91-.78,1.87-1.5,2.9-2.11,1.02-.6,2.08-1.09,3.22-1.39.54-.14,1.08-.24,1.63-.32.29-.04.53-.15.71-.38.16-.2.33-.39.5-.58.28-.32.59-.62.93-.88.35-.28.74-.51,1.16-.67.06-.02.12-.04.18-.04.04,0,.09.02.11.05.02.03,0,.08-.01.12-.09.18-.25.29-.38.43-.62.63-1.12,1.34-1.53,2.12-.02.03,0,.08,0,.12,0,.05.07.03.16-.03.16-.11.31-.23.47-.33.07-.04.16-.05.24-.08.02,0,.05,0,.06.02.02.03.05.08.04.11-.08.2-.22.37-.37.52-.64.67-1.18,1.41-1.71,2.16-.2.28-.39.56-.53.87.03.05.07.07.11.04.15-.11.3-.24.46-.35.09-.06.19-.09.29-.12.03,0,.07.03.1.05.01,0,.01.04,0,.06-.02.16-.13.27-.22.38-.55.64-.96,1.36-1.37,2.09-.06.11-.13.22-.14.35.02.05.06.06.1.02.15-.12.3-.24.45-.36,0,0,0,0,0,0,.05.1.07.21,0,.31-.11.18-.23.36-.34.54-.77,1.22-1.32,2.54-1.76,3.91,0,.02.03.07.05.09,0,0,.04,0,.06-.02.03-.03.07-.05.1-.08,1.28-1.5,2.45-3.07,3.45-4.77.82-1.38,1.48-2.84,2.07-4.34.22-.56.43-1.12.65-1.67.13-.32.26-.63.4-.95.75-1.73,1.85-3.22,3.26-4.47.18-.16.36-.31.55-.44.38-.26.68-.58.93-.96.13-.2.27-.38.42-.56.12-.15.27-.28.45-.34.03-.01.09,0,.11.02.02.02.04.08.03.11-.03.1-.07.2-.11.3-.11.26-.22.51-.33.77-.27.65-.44,1.34-.55,2.04-.01.08,0,.17,0,.25,0,.01.02.04.03.04.02,0,.05,0,.06-.01.11-.16.21-.32.33-.47.06-.08.14-.16.23-.22.02-.02.08,0,.12,0h-.02c.04.17-.02.33-.07.49-.25.94-.51,1.89-.76,2.83-.03.1-.06.21-.07.31,0,.08.03.16.04.24,0,0-.04,0-.04,0l.02.03c.07-.08.13-.17.21-.24.04-.04.11-.05.17-.06.05,0,.07.07.05.16-.07.29-.14.58-.22.87-.1.38-.13.76-.16,1.14-.03.59,0,1.29.08,1.92.1-.04.07-.13.08-.2.21-1.87.54-3.73,1.04-5.55.25-.89.57-1.75.99-2.57.5-.97,1.16-1.79,2.01-2.47.12-.09.25-.17.38-.24.11-.06.28,0,.33.11.04.08.09.15.1.24.04.26.17.48.31.7.4.61.72,1.26.98,1.95.05.14.11.28.17.41.09.19.25.28.47.26.15-.01.3-.05.45-.06.32-.03.64-.08.96-.03.05,0,.08.03.08.08,0,.04-.01.09-.03.11-.11.14-.27.21-.42.29-.21.1-.43.19-.64.3-.09.05-.18.11-.26.18-.04.04-.06.11-.06.17,0,.06.03.12.05.18.15.54.3,1.07.45,1.61.02.06.04.12.06.18.05.13.13.23.27.24.21.02.43.04.64.05.19,0,.39-.02.58,0,.08,0,.16.05.24.08.05.02.06.13,0,.16-.11.07-.21.15-.32.2-.24.1-.48.18-.72.28-.1.04-.18.11-.26.18-.07.06-.1.14-.09.23,0,.06.01.13.03.19.18.66.37,1.32.49,1.99.03.16.13.27.3.3.15.03.29.05.44.07.4.06.81.1,1.21.16.06,0,.12.05.17.08.05.03.05.08,0,.11-.09.06-.18.12-.27.16-.43.19-.88.34-1.34.43-.11.02-.19.12-.17.23.05.36.11.72.17,1.08.04.23.07.47.11.7.01.08.03.17.05.25.04.18.13.26.31.28.38.04.77.08,1.15.11.24.02.46.08.68.17.06.02.1.08.15.12.04.03.03.15-.01.17-.11.05-.23.11-.35.15-.51.17-1.01.34-1.52.51-.11.04-.17.13-.16.25.08.9.16,1.79.24,2.69.02.17.05.34.08.51.02.11.12.17.24.16.62-.1,1.24-.1,1.86-.1.32,0,.64.02.96.04.03,0,.06.04.09.07.04.03-.01.12-.08.15-.02,0-.04.02-.06.03-.82.23-1.61.56-2.43.83-.08.03-.17.04-.25.07-.11.04-.18.11-.2.23-.01.11-.02.21-.02.32,0,.24.01.47.03.71.1,1.26.12,2.52.12,3.79,0,.15-.02.3.08.45.09,0,.2,0,.3-.02.77-.13,1.53-.12,2.3,0,.21.03.42.06.63.1.08.02.16.06.23.09.05.02.05.06,0,.1-.05.04-.1.09-.16.11-.58.14-1.17.27-1.75.42-.4.1-.8.15-1.21.16-.09,0-.17,0-.26,0-.11,0-.19.1-.19.21,0,.06,0,.13-.01.19-.05,1.48-.09,2.95-.14,4.43,0,.17,0,.34,0,.51,0,.14.1.22.25.23.11,0,.21,0,.32.01,1.18.02,2.34.2,3.5.42.03,0,.07.05.07.07,0,.04-.04.07-.07.1-.03.02-.08.04-.12.04-.57.1-1.14.19-1.71.28-.65.11-1.31.22-1.96.33-.08.01-.17.03-.25.05-.08.02-.14.09-.15.18-.02.26-.04.51-.06.77-.07,1-.22,2-.39,2.99-.01.08.04.17.13.19.1.03.21.06.31.07,1.04.15,2.08.28,3.11.43.32.04.63.1.95.16-.04.1-.08.18-.18.19-.15.02-.3.05-.44.06-.74.08-1.49.17-2.23.25-.43.05-.85.08-1.28.13-.17.02-.34.04-.51.07-.05.01-.1.08-.13.13-.02.03-.03.08-.03.12-.17,1.19-.48,2.35-.83,3.49-.06.18-.12.36-.13.56.12.14.3.17.46.21.66.18,1.32.35,1.98.53.47.13.95.26,1.42.4.12.04.22.11.33.18.01,0,.01.04.01.05,0,.02-.02.05-.03.05-.08.02-.17.03-.25.03-.81-.01-1.63-.03-2.44-.04-.6,0-1.2-.01-1.8-.02-.17,0-.3.07-.36.22-.33.81-.88,1.46-1.4,2.15-.16.21-.33.4-.56.52-.16.09-.31,0-.35-.16-.03-.1-.04-.22-.01-.31.29-1.09.52-2.2.96-3.26.54-1.29.89-2.63,1.18-4,.29-1.34.51-2.69.68-4.05.17-1.38.29-2.77.38-4.16.19-2.95.17-5.91.08-8.86-.03-1.07-.12-2.14-.2-3.21-.05-.66-.1-1.32-.17-1.98-.1-.92-.21-1.83-.33-2.74-.33-2.53-.94-5-1.53-7.48-.34-1.44-.69-2.87-1.02-4.31-.1-.44-.17-.88-.25-1.32,0-.03-.05-.06-.07-.09-.03-.04-.1,0-.14.09-.02.04-.03.08-.05.12-.15.31-.28.63-.44.93-.75,1.34-1.23,2.77-1.57,4.26-.3,1.29-.51,2.6-.67,3.92-.17,1.4-.25,2.82-.33,4.23-.02.37-.07.72-.15,1.08-.19.77-.46,1.51-.84,2.21-.13.24-.29.47-.46.7-.07.1-.18.18-.28.26-.06.05-.2,0-.21-.06-.02-.17-.04-.34-.05-.51-.03-.58-.05-1.16-.09-1.73-.05-.66-.17-1.32-.31-1.96-.06-.29-.18-.57-.28-.85-.12-.32-.26-.63-.38-.95-.46-1.19-.7-2.42-.72-3.7-.02-1.29.1-2.57.35-3.83.02-.1.02-.21.03-.32,0-.01-.02-.04-.03-.04-.02,0-.05,0-.06.01-.06.08-.13.17-.18.26-.29.5-.53,1.03-.74,1.57-.35.9-.69,1.8-1.03,2.7-.4,1.06-.82,2.12-1.31,3.14-.7,1.48-1.53,2.87-2.56,4.14-.93,1.16-1.99,2.18-3.17,3.08-.19.14-.39.27-.56.42-.32.3-.72.46-1.11.62-.09.04-.22-.03-.26-.13-.08-.2-.11-.41-.12-.63-.02-.96-.06-1.93-.01-2.89.08-1.51.42-2.96,1.11-4.32.51-1,1.08-1.94,1.85-2.77.15-.16.28-.32.4-.5.07-.09.2-.17.13-.32-.12-.04-.2.04-.29.09-2.02,1.12-4.01,2.31-5.89,3.65-1.82,1.29-3.54,2.7-5.11,4.29-.5.5-.99,1.01-1.42,1.57-.06.08-.14.16-.22.23-.07.05-.15.08-.24.05-.06-.02-.13-.12-.12-.2.02-.19.04-.38.08-.57.11-.46.22-.92.34-1.37.35-1.28.75-2.54,1.24-3.78.47-1.18,1.06-2.29,1.79-3.33.9-1.29,1.91-2.47,3.02-3.58,1.84-1.84,3.85-3.47,6.05-4.85,1.86-1.17,3.84-2.06,5.91-2.76.12-.04.25-.08.36-.12.03-.01.04-.06.06-.1,0,0-.03-.03-.05-.03-.06-.01-.13-.03-.19-.03-1.11-.05-2.23-.03-3.34.06-.77.07-1.52.23-2.26.44-1.22.34-2.4.77-3.57,1.26-1.97.83-3.89,1.77-5.74,2.86-.48.28-.94.6-1.41.9-.16.1-.31.23-.51.25-.09-.06-.17-.13-.26-.18-.14-.07-.16-.2-.15-.33.02-.19.05-.38.1-.57.09-.33.18-.66.29-.98.52-1.57,1.45-2.85,2.73-3.88.52-.42,1.07-.78,1.63-1.14.03-.02.05-.06.07-.1,0,0-.02-.04-.03-.04-.06,0-.13-.01-.19,0-2.16.36-4.24,1.01-6.26,1.86-1.48.63-2.91,1.36-4.31,2.14-.43.24-.85.49-1.29.72-.22.12-.46.23-.68.34-.13-.13-.26-.14-.41-.11-.12.02-.22-.07-.21-.18,0-.13,0-.26.04-.38.49-1.41,1.19-2.7,2.25-3.77.56-.57,1.15-1.08,1.79-1.56.94-.71,1.95-1.32,2.96-1.93.18-.11.38-.19.57-.29.08-.04.15-.08.19-.2-.33.04-.65.06-.96.12-2.66.49-5.25,1.19-7.76,2.2-.77.31-1.53.68-2.24,1.11-.77.47-1.53.94-2.3,1.41-.26.16-.52.3-.78.45-.13.08-.28.1-.43.09-.19-.01-.37-.18-.37-.38,0-.11,0-.22.04-.31.06-.16.13-.32.22-.46.24-.38.49-.75.74-1.13.26-.39.54-.77.8-1.16.92-1.38,1.98-2.63,3.21-3.75,2.11-1.91,4.55-3.18,7.29-3.87,1.97-.49,3.96-.65,5.98-.56,2.61.12,5.12.66,7.57,1.57.46.17.91.38,1.34.61.13.07.25.05.36-.02-.03.03-.05.06-.08.09,0,0,.01.03.01.03.08-.01.03-.08.05-.12-.08-.04-.16-.06-.23-.11-.86-.6-1.72-1.2-2.58-1.79-.44-.31-.88-.61-1.31-.93-.16-.11-.3-.24-.44-.37-.13-.12-.08-.34.09-.42.08-.04.16-.08.24-.1.56-.14,1.12-.3,1.7-.33.49-.03.98-.04,1.47-.07.03,0,.06-.05.08-.08,0-.01,0-.05-.02-.06-.69-.54-1.41-1.04-2.18-1.46-1.39-.77-2.8-1.47-4.23-2.16-1.1-.53-2.21-1.03-3.31-1.55-.33-.15-.66-.31-.99-.47-.11-.06-.22-.14-.32-.21-.04-.03-.05-.13,0-.17.08-.07.15-.16.24-.21.3-.17.59-.35.9-.49,1.59-.7,3.25-1.06,4.99-.95.08,0,.16-.01.24-.02,0,0,.02-.04.02-.06-.02-.04-.03-.08-.06-.1-.29-.19-.57-.38-.86-.55-.63-.36-1.3-.64-1.98-.92-1.41-.57-2.85-1.05-4.29-1.52-.79-.26-1.58-.52-2.37-.79-.24-.08-.49-.16-.7-.32-.08-.06-.09-.21-.02-.28.09-.09.21-.14.33-.19.9-.39,1.83-.72,2.78-.98,1.3-.36,2.63-.6,3.98-.67.34-.02.68-.05,1.02-.07,2.58-.11,5.01.45,7.32,1.58,1.53.75,2.93,1.68,4.27,2.72.83.64,1.63,1.33,2.4,2.04,1.17,1.08,2.21,2.27,3.08,3.61.05.07.09.14.15.21.02.03.06.05.1.06.04.01.07-.07.06-.16-.05-.32-.1-.63-.17-.95-.16-.76-.23-1.52-.23-2.3,0-1.16.11-2.31.24-3.46.14-1.24.37-2.46.67-3.66.54-2.13,1.34-4.15,2.46-6.05.86-1.46,1.89-2.8,3.13-3.97,1.19-1.13,2.51-2.07,4.01-2.74.7-.32,1.43-.58,2.19-.7.32-.05.62-.15.91-.3.06-.03.12-.06.18-.07.06-.02.13-.02.17.04.03.05.06.11.06.17,0,.06-.01.13-.04.19-.04.1-.09.19-.14.29-.11.19-.22.37-.33.55-1.39,2.2-2.46,4.55-3.33,7-.18.5-.34,1.01-.51,1.52-.03.1-.05.2-.08.3.06,0,.11.02.13,0,.42-.4.86-.77,1.32-1.13.79-.61,1.67-1.03,2.65-1.24.27-.06.54-.12.81-.18.03,0,.1.01.11.04.03.05.06.13.03.17-.08.17-.17.35-.27.51-.21.35-.43.69-.65,1.03-1.95,3.05-3.36,6.35-4.27,9.86-.05.21-.1.42-.15.62,0,.03.02.1.03.1.04,0,.09,0,.12-.03.13-.11.25-.23.38-.35.75-.69,1.6-1.22,2.55-1.57.57-.21,1.15-.33,1.76-.33.06,0,.13.01.19.02.09.01.17.16.14.25-.02.06-.04.12-.07.18-.04.08-.09.15-.13.22-1.62,2.39-2.88,4.95-3.83,7.68-.12.34-.23.69-.34,1.04,0,.02.01.04.03.06,0,0,.04,0,.05,0,.15-.06.23-.19.33-.3,1.09-1.16,2.26-2.22,3.53-3.17,2.98-2.23,6.27-3.83,9.88-4.75,1.1-.28,2.22-.46,3.34-.6,2.32-.27,4.66-.28,6.99-.2.94.03,1.88.09,2.82.19.85.08,1.7.18,2.55.3.59.09,1.18.19,1.76.34.27.07.53.17.77.3v.13c-.13.12-.29.18-.46.2-.36.05-.72.1-1.08.15-.72.1-1.44.19-2.16.3-1.44.22-2.87.45-4.27.88-.29.09-.57.18-.85.28-1.11.39-2.22.79-3.32,1.18-.07.03-.15.07-.13.17,1.81.53,3.36,1.47,4.67,2.82.34.35.67.73.93,1.14.13.2.25.4.35.61.04.09.06.21.05.31,0,.05-.07.11-.12.13-.05.02-.12.02-.19.02-.68-.04-1.37-.1-2.05-.13-.66-.04-1.32-.07-1.99-.08-.9-.02-1.8-.04-2.7-.04-1.63,0-3.24.24-4.83.6-.85.19-1.7.41-2.55.62-.08.02-.16.05-.2.16.36.11.73.21,1.1.32.68.21,1.33.46,1.96.79.75.38,1.42.87,1.98,1.5.24.27.48.54.81.72.07.04.07.14,0,.21-.03.03-.07.06-.09.09-.07.14-.2.16-.33.13-.44-.11-.89-.12-1.34-.08-.34.03-.68.09-1.02.15-.88.15-1.77.31-2.65.48-1.74.33-3.48.71-5.16,1.27-.59.19-1.17.42-1.73.68-.6.28-1.16.63-1.71,1.01-.03.02-.04.06-.06.1-.01.04.06.07.16.06.19-.02.38-.03.57-.06,1.61-.26,3.24-.3,4.86-.25.79.03,1.58.12,2.36.23,1.34.19,2.64.51,3.93.92,2.27.74,4.39,1.79,6.37,3.12.48.32.93.68,1.37,1.06,1.29,1.14,2.11,2.57,2.54,4.23.04.17.09.33.12.5.02.1,0,.21-.02.32-.02.12-.18.22-.29.18-.08-.02-.16-.05-.24-.09-2.11-1.24-4.34-2.21-6.68-2.93-1-.31-2.02-.54-3.06-.69-.1-.01-.2-.04-.3.02,0,.1.1.14.17.18.34.19.65.42.92.69.62.61,1.05,1.34,1.31,2.18.2.64.25,1.3.35,1.95,0,.05-.03.13-.07.17-.07.05-.16.05-.24,0-.09-.05-.19-.11-.27-.17-1.4-1.11-2.9-2.04-4.43-2.95-.59-.35-1.2-.66-1.8-.98-.55-.29-1.13-.51-1.73-.68-.62-.18-1.22-.39-1.82-.63-.2-.08-.4-.14-.61-.2-.08-.03-.17,0-.24.05.02-.01.04-.02.04-.03,0-.01,0-.03,0-.04,0,.02-.02.04-.02.07Z"/>
    <path d="m638.85,490.55s-.02.06-.03.09c0-.02,0-.03,0-.05,0-.02.03-.03.04-.05,0,0,0,0,0,0Z"/>
    <path d="m645.36,510.02s-.03-.04,0-.03c0,0-.02.02-.02.03,0,0,.02,0,.02,0Z"/>
    <path d="m635.16,520.97s.01.05.02.08c0-.03-.01-.05-.02-.08,0,0,0,0,0,0Z"/>
  </g>
  <text class="cls-2" transform="translate(786.97 570.21)"><tspan x="0" y="0">&gt;</tspan></text>
  <text class="cls-3" transform="translate(750.87 546.99) scale(1.96 1)"><tspan x="0" y="0">/</tspan></text>
  <text class="cls-1" transform="translate(337.81 488.24) rotate(179.39)"><tspan x="0" y="0">&gt;</tspan></text>
</svg>